<svg width="16" height="24" viewBox="0 0 16 24" fill="none" xmlns="http://www.w3.org/2000/svg">
<g clip-path="url(#clip0_3_2)">
<path d="M8 12C8 9.81344 9.77261 8.04077 11.9593 8.04077C14.1459 8.04077 15.9186 9.81344 15.9186 12C15.9186 14.1867 14.1459 15.9593 11.9593 15.9593C9.77261 15.9593 8 14.1867 8 12Z" fill="#5A6271"/>
<path d="M0.0814209 19.9185C0.0814209 17.7319 1.85405 15.9592 4.0407 15.9592H7.99997V19.9185C7.99997 22.1052 6.22736 23.8778 4.0407 23.8778C1.85405 23.8778 0.0814209 22.1052 0.0814209 19.9185Z" fill="#5A6271"/>
<path d="M8 0.122192V8.04072H11.9593C14.1459 8.04072 15.9186 6.26811 15.9186 4.08147C15.9186 1.89482 14.1459 0.122192 11.9593 0.122192H8Z" fill="#5A6271"/>
<path d="M0.0814209 4.08147C0.0814209 6.26811 1.85405 8.04073 4.0407 8.04073H7.99997V0.122192H4.0407C1.85405 0.122192 0.0814209 1.89482 0.0814209 4.08147Z" fill="#5A6271"/>
<path d="M0.0814209 12C0.0814209 14.1867 1.85405 15.9593 4.0407 15.9593H7.99997V8.04077H4.0407C1.85405 8.04077 0.0814209 9.81344 0.0814209 12Z" fill="#5A6271"/>
</g>
<defs>
<clipPath id="clip0_3_2">
<rect width="16" height="24" fill="white"/>
</clipPath>
</defs>
</svg>
